<svg height="512" viewBox="0 0 64 64" width="512" xmlns="http://www.w3.org/2000/svg"><g id="flat"><path d="m40 8h13v12h-13z" fill="#ffd782" transform="matrix(-1 0 0 -1 93 28)"/><path d="m43 11h2v2h-2z" fill="#394d5c"/><path d="m40 20h13v16h-13z" fill="#195c85"/><path d="m3 32h37v29h-37z" fill="#d3843d" transform="matrix(-1 0 0 -1 43 93)"/><path d="m40 36h13v4h-13z" fill="#2d75bb"/><path d="m48 44h4v9h-4z" fill="#394d5c"/><path d="m24 28a4 4 0 0 1 -4-4v-12a4 4 0 0 1 4-4z" fill="#143441"/><path d="m20 19h-4a4 4 0 0 0 -4 4v9h4v-9h4z" fill="#394d5c"/><path d="m44 26v2h-4v4h5a3 3 0 0 0 3-3v-3a2 2 0 0 0 -2-2 2 2 0 0 0 -2 2z" fill="#2d75bb"/><path d="m38 28h2a0 0 0 0 1 0 0v4a0 0 0 0 1 0 0h-2a2 2 0 0 1 -2-2 2 2 0 0 1 2-2z" fill="#ffd782"/><path d="m48 3s-8.209.009-8.377.026c-3.076.312-2.715 4.974.377 4.974h7v4a2 2 0 0 1 0 4h6v-8a5 5 0 0 0 -5-5z" fill="#394d5c"/><path d="m59.032 19c-1.179 0-1.811.842-2.032 2l-4 19h-13v4h17l4-22c.288-1.513-.427-3-1.968-3z" fill="#143441"/><path d="m28 28h8v4h-8z" fill="#394d5c"/><path d="m55 57h-10v-1a2.84 2.84 0 0 1 3-3h4a2.84 2.84 0 0 1 3 3z" fill="#143441"/><circle cx="45" cy="59" fill="#394d5c" r="2"/><circle cx="55" cy="59" fill="#394d5c" r="2"/><path d="m3 55h37v6h-37z" fill="#66342e"/><path d="m40 15h4v2h-4z" fill="#394d5c"/><path d="m6 32h-2v-1a6.006 6.006 0 0 1 6-6h2v2h-2a4 4 0 0 0 -4 4z" fill="#2d75bb"/><path d="m3 37h6v8h-6z" fill="#f9bb4b"/><path d="m3 40h3v2h-3z" fill="#66342e"/></g></svg>