<svg id="Layer_1" height="512" viewBox="0 0 512 512" width="512" xmlns="http://www.w3.org/2000/svg" data-name="Layer 1"><path d="m458.92 224.36a19.6 19.6 0 0 0 -11.03-3.39h-383.78a19.88 19.88 0 0 0 -19.8 19.8v125.27a19.858 19.858 0 0 0 19.8 19.8h383.78a19.858 19.858 0 0 0 19.8-19.8v-125.27a19.8 19.8 0 0 0 -8.77-16.41z" fill="#e5cfa3"/><path d="m390.96 247.96a10.545 10.545 0 1 1 -10.55 10.54 10.541 10.541 0 0 1 10.55-10.54z" fill="#49bdff"/><path d="m344.08 247.96a10.545 10.545 0 1 1 -10.55 10.54 10.541 10.541 0 0 1 10.55-10.54z" fill="#49bdff"/><path d="m104.8 253.18h153.79v27.5h-153.79z" fill="#fb6771"/><path d="m110.5 309.54h291v46.58h-291z" fill="#baa379"/><path d="m360.94 329.93h-209.88l-31.59 166.07h273.06z" fill="#daecef"/><path d="m370.27 59.89a18.332 18.332 0 0 0 -18.23-16.38h-192.08a18.332 18.332 0 0 0 -18.23 16.38l-11.56 78.04v1.95h251.66v-1.95z" fill="#81b4aa"/><path d="m342.87 16h-173.74l-18.89 123.88h211.52z" fill="#daecef"/><path d="m74.31 366.04v-125.27a19.88 19.88 0 0 1 19.8-19.8h-30a19.88 19.88 0 0 0 -19.8 19.8v125.27a19.858 19.858 0 0 0 19.8 19.8h30a19.858 19.858 0 0 1 -19.8-19.8z" fill="#ccb489"/><path d="m151.06 329.93-31.59 166.07h30l31.59-166.07z" fill="#bed1d3"/><path d="m169.13 16-18.89 123.88h30l18.89-123.88z" fill="#bed1d3"/><path d="m416.64 149.9 42.28 74.46a19.6 19.6 0 0 0 -11.03-3.39h-383.78a19.594 19.594 0 0 0 -12.09 4.16l-.24-.3 41.99-74.84a19.793 19.793 0 0 1 17.26-10.11h288.4a19.8 19.8 0 0 1 17.21 10.02z" fill="#ffe6bb"/><path d="m141.03 139.88h-30a19.793 19.793 0 0 0 -17.26 10.11l-41.99 74.84.24.3a19.594 19.594 0 0 1 12.09-4.16h19.836l39.824-70.98a19.793 19.793 0 0 1 17.26-10.11z" fill="#e5caa3"/><path d="m87.266 259.178h-5.306a6 6 0 0 1 0-12h5.306a6 6 0 0 1 0 12z" fill="#baa379"/><g fill="#9fb6b7"><path d="m211.061 380.155h-20.643a6 6 0 0 1 0-12h20.643a6 6 0 1 1 0 12z"/><path d="m330.751 380.155h-102.137a6 6 0 0 1 0-12h102.137a6 6 0 0 1 0 12z"/><path d="m301.21 408.43h-119.961a6 6 0 1 1 0-12h119.961a6 6 0 0 1 0 12z"/><path d="m337.169 408.43h-18.406a6 6 0 0 1 0-12h18.406a6 6 0 0 1 0 12z"/><path d="m302.748 441.721h-139.836a6 6 0 0 1 0-12h139.836a6 6 0 1 1 0 12z"/><path d="m349.088 441.721h-28.788a6 6 0 1 1 0-12h28.787a6 6 0 0 1 0 12z"/><path d="m237.03 470h-83.286a6 6 0 0 1 0-12h83.286a6 6 0 0 1 0 12z"/><path d="m358.256 470h-103.673a6 6 0 1 1 0-12h103.673a6 6 0 0 1 0 12z"/></g></svg>