<?xml version="1.0" encoding="iso-8859-1"?>
<!-- Generator: Adobe Illustrator 19.0.0, SVG Export Plug-In . SVG Version: 6.00 Build 0)  -->
<svg version="1.1" id="Capa_1" xmlns="http://www.w3.org/2000/svg" xmlns:xlink="http://www.w3.org/1999/xlink" x="0px" y="0px"
	 viewBox="0 0 511.99 511.99" style="enable-background:new 0 0 511.99 511.99;" xml:space="preserve">
<path style="fill:#C8E6EB;" d="M278.607,249.517h-90.452c-4.597,0-8.324-3.727-8.324-8.324c0-4.597,3.727-8.324,8.324-8.324h90.451
	c4.597,0,8.324,3.727,8.324,8.324C286.93,245.79,283.203,249.517,278.607,249.517z"/>
<path style="fill:#BA6746;" d="M182.829,165.075l-116.647-10.35c-11.967-1.062-20.808-11.624-19.746-23.591
	c1.062-11.967,11.625-20.811,23.591-19.746l114.602,10.169l79.603-7.965c11.957-1.197,22.615,7.525,23.811,19.48
	c1.196,11.955-7.525,22.616-19.48,23.812l-81.646,8.17C185.558,165.189,184.192,165.196,182.829,165.075z"/>
<path style="fill:#53618C;" d="M44.981,511.99c13.327,0,24.13-10.804,24.13-24.13V294.982c0-13.327-10.804-24.13-24.13-24.13
	s-24.13,10.804-24.13,24.13V487.86C20.851,501.186,31.654,511.99,44.981,511.99z"/>
<path style="fill:#5F6E9B;" d="M103.232,511.99c13.327,0,24.13-10.804,24.13-24.13V294.982c0-13.327-10.804-24.13-24.13-24.13
	s-24.13,10.804-24.13,24.13V487.86C79.102,501.186,89.905,511.99,103.232,511.99z"/>
<path style="fill:#FF3C3C;" d="M127.363,294.982H20.851v-161.84c0-17.275,14.004-31.279,31.279-31.279h43.954
	c17.275,0,31.279,14.004,31.279,31.279C127.363,133.142,127.363,294.982,127.363,294.982z"/>
<g>
	<circle style="fill:#BA6746;" cx="73.245" cy="44.35" r="44.35"/>
	<path style="fill:#BA6746;" d="M174.86,258.517l-70.755-28.543c-4.517-1.822-8.291-5.107-10.719-9.329l-44.138-76.744
		c-5.989-10.415-2.402-23.713,8.012-29.703c10.416-5.989,23.714-2.402,29.703,8.012l40.391,70.227l63.783,25.731
		c11.142,4.494,16.531,17.171,12.036,28.313C198.663,257.658,185.97,262.999,174.86,258.517z"/>
</g>
<path style="fill:#FF6248;" d="M67.892,176.32l38.297-20.679l-19.227-33.43c-5.989-10.414-19.287-14.001-29.703-8.012
	c-10.414,5.99-14.001,19.288-8.012,29.703L67.892,176.32z"/>
<path style="fill:#82878C;" d="M394.335,285.489L263.377,157.905c-5.488-5.346-5.602-14.129-0.256-19.617
	c5.346-5.489,14.128-5.603,19.617-0.256l130.958,127.583c5.488,5.346,5.602,14.129,0.256,19.617
	C408.62,290.707,399.838,290.848,394.335,285.489z"/>
<path style="fill:#A0A0A5;" d="M230.884,417.618h-72.139c-7.661,0-13.873-6.211-13.873-13.873s6.211-13.873,13.873-13.873h72.139
	c7.661,0,13.873,6.211,13.873,13.873S238.546,417.618,230.884,417.618z"/>
<path style="fill:#82878C;" d="M381.818,387.027c-3.638-6.743-1.121-15.158,5.621-18.797l83.237-44.911
	c6.743-3.637,15.158-1.121,18.796,5.622s1.121,15.158-5.621,18.797l-83.237,44.911C393.841,396.302,385.441,393.74,381.818,387.027z
	"/>
<g>
	<path style="fill:#C8E6EB;" d="M249.751,383.214h-72.138c-4.597,0-8.324-3.727-8.324-8.324s3.727-8.324,8.324-8.324h72.138
		c4.597,0,8.324,3.727,8.324,8.324S254.347,383.214,249.751,383.214z"/>
	<path style="fill:#C8E6EB;" d="M249.751,359.907h-72.138c-4.597,0-8.324-3.727-8.324-8.324s3.727-8.324,8.324-8.324h72.138
		c4.597,0,8.324,3.727,8.324,8.324S254.347,359.907,249.751,359.907z"/>
</g>
<path style="fill:#B9B9BE;" d="M404.016,511.99H225.335c-7.968,0-14.428-6.459-14.428-14.428V277.818
	c0-7.968,6.459-14.428,14.428-14.428h178.681c7.968,0,14.428,6.459,14.428,14.428v219.744
	C418.444,505.531,411.984,511.99,404.016,511.99z"/>
<path style="fill:#A0A0A5;" d="M404.016,263.39h-89.542v248.6h89.542c7.968,0,14.428-6.459,14.428-14.428V277.818
	C418.444,269.85,411.984,263.39,404.016,263.39z"/>
<g>
</g>
<g>
</g>
<g>
</g>
<g>
</g>
<g>
</g>
<g>
</g>
<g>
</g>
<g>
</g>
<g>
</g>
<g>
</g>
<g>
</g>
<g>
</g>
<g>
</g>
<g>
</g>
<g>
</g>
</svg>
